<svg width="457" height="62" viewBox="0 0 457 62" fill="none" xmlns="http://www.w3.org/2000/svg">
<path d="M360.695 18.5303C363.079 18.5303 365.138 19.0379 366.887 20.0674C368.635 21.0968 369.988 22.4656 370.947 24.1719C371.92 25.8923 372.4 27.7392 372.4 29.7275C372.4 31.053 372.034 32.0825 371.314 32.8018C370.595 33.521 369.735 33.8877 368.733 33.8877C367.676 33.8876 366.801 33.5208 366.082 32.7734C365.363 32.0261 364.996 31.152 364.996 30.165C364.996 29.5023 365.109 28.8818 365.335 28.3037C365.561 27.7255 365.674 27.0481 365.674 26.2725C365.674 25.0034 365.419 24.0024 364.926 23.2832C364.432 22.564 363.812 22.0563 363.064 21.7461C362.317 21.4359 361.556 21.295 360.78 21.2949C359.624 21.2949 358.552 21.5909 357.579 22.1689C356.606 22.7471 355.759 23.5654 355.04 24.623C354.321 25.6806 353.715 26.9074 353.207 28.3174C352.713 29.7276 352.319 31.2794 352.051 32.9717C351.769 34.6638 351.642 36.4405 351.642 38.3301C351.642 42.1518 352.078 45.3395 352.967 47.8779C353.855 50.4301 355.054 52.3334 356.577 53.6025C358.1 54.8717 359.807 55.5068 361.683 55.5068C364.009 55.5068 365.9 54.6044 367.366 52.8135C368.833 51.0225 369.932 48.5967 370.651 45.5508H373.303C372.753 49.2031 371.766 52.1927 370.355 54.5195C368.945 56.8464 367.267 58.5532 365.335 59.625C363.403 60.7108 361.288 61.2461 359.031 61.2461V61.1904C356.098 61.1904 353.475 60.3156 351.19 58.5811C348.892 56.8324 347.087 54.4347 345.747 51.3604C344.422 48.2861 343.759 44.7604 343.759 40.7695C343.759 38.2736 344.026 35.9327 344.548 33.7188C345.07 31.5047 345.832 29.4738 346.833 27.6123C347.834 25.765 349.033 24.1575 350.443 22.8037C351.853 21.45 353.418 20.3919 355.139 19.6445C356.859 18.8971 358.707 18.5303 360.695 18.5303ZM324.678 18.502C327.329 18.502 329.572 19.0244 331.405 20.082C333.238 21.1397 334.62 22.6345 335.551 24.5664C336.496 26.4984 336.961 28.8817 336.961 31.7021V53.377C336.961 54.3782 337.131 55.0842 337.455 55.4932C337.793 55.9019 338.146 56.1133 338.541 56.1133C339.091 56.1132 339.556 55.8026 339.908 55.1963C340.261 54.5899 340.529 53.6736 340.698 52.4609H343.194C343.025 54.7312 342.546 56.5082 341.742 57.7773C340.938 59.0466 339.965 59.9351 338.837 60.4287C337.709 60.9223 336.608 61.1758 335.551 61.1758C334.493 61.1758 333.492 60.9498 332.519 60.5127C331.546 60.0755 330.77 59.328 330.192 58.2705C329.67 57.3278 329.38 56.0516 329.328 54.4727C329.092 55.1111 328.826 55.705 328.528 56.2539C327.612 57.918 326.469 59.1592 325.087 59.9912C323.705 60.8232 322.125 61.2324 320.349 61.2324L320.32 61.1904C318.656 61.1904 317.119 60.7809 315.709 59.9912C314.299 59.1874 313.17 58.0031 312.353 56.4238C311.521 54.8444 311.111 52.898 311.111 50.5713C311.111 48.5829 311.464 46.7914 312.197 45.2119C312.916 43.6325 314.045 42.2224 315.597 40.9814C317.148 39.7406 319.136 38.5835 321.575 37.54L326.314 35.4678C327.414 34.9742 328.189 34.2544 328.641 33.3096C329.078 32.3648 329.304 31.2651 329.304 29.9961L329.317 30.1846V29.8828H329.29C329.29 27.1753 328.852 25.0601 327.964 23.5371C327.075 22.0141 325.722 21.252 323.902 21.252C322.083 21.252 320.616 21.8167 319.714 22.959C318.797 24.0871 318.346 25.3279 318.346 26.6533C318.346 27.3724 318.459 27.9929 318.685 28.5146C318.91 29.0363 319.023 29.671 319.023 30.376C319.023 31.4336 318.67 32.3082 317.979 33.0273C317.289 33.7465 316.443 34.1132 315.441 34.1133C314.327 34.1133 313.411 33.7607 312.663 33.0273C311.916 32.3081 311.549 31.2787 311.549 29.9531C311.549 27.852 312.113 25.92 313.255 24.1855C314.383 22.4369 315.949 21.0544 317.951 20.0391C319.939 19.0097 322.182 18.502 324.678 18.502ZM24.3262 0C26.8222 0 28.9659 0.268297 30.7568 0.790039C32.5476 1.31176 34.0849 1.80505 35.3682 2.24219C36.6373 2.67935 37.7519 2.76402 38.6826 2.49609L39.7686 19.5176H37.1875C36.2427 14.0883 34.7341 10.055 32.6611 7.38965C30.5881 4.73845 27.8804 3.39848 24.5664 3.39844C22.6908 3.39844 20.9279 3.80793 19.292 4.59766C17.6563 5.40144 16.2037 6.54339 14.9346 8.03809C13.6654 9.53293 12.5789 11.3382 11.6904 13.4395C10.802 15.5406 10.1117 17.8676 9.61816 20.4199C9.12458 22.9724 8.87012 25.7369 8.87012 28.7266C8.87013 32.6047 9.26551 36.1303 10.0693 39.3174C10.8732 42.5044 11.9874 45.2404 13.4258 47.5391C14.8642 49.8376 16.5701 51.6007 18.5303 52.8135C20.4904 54.0262 22.6341 54.6465 24.9609 54.6465C28.3878 54.6465 31.2787 53.363 33.6338 50.7822C35.9889 48.2015 37.6816 44.6194 38.7393 40.0361H41.3193C40.9245 44.3514 39.8816 48.103 38.1611 51.29C36.4407 54.4772 34.2124 56.9172 31.4766 58.6377C28.7407 60.3582 25.6239 61.2178 22.1406 61.2178L22.1689 61.1904C19.0101 61.1904 16.0629 60.4706 13.3271 59.0322C10.5913 57.5938 8.23561 55.5491 6.27539 52.8838C4.31518 50.2326 2.77814 47.0734 1.66406 43.4209C0.550011 39.7684 0 35.7772 0 31.4619C2.53339e-05 27.8096 0.36686 24.4108 1.11426 21.252C1.86168 18.0931 2.94789 15.2021 4.40039 12.5791C5.83879 9.95621 7.5733 7.71397 9.58984 5.85254C11.6064 4.00518 13.8485 2.56656 16.3164 1.53711C18.7842 0.507688 21.4494 4.04245e-05 24.3262 0ZM59.7373 18.5166C62.8398 18.5166 65.5619 19.419 67.917 21.21C70.2721 23.0151 72.1056 25.5112 73.4453 28.7266C74.7709 31.9419 75.4336 35.6511 75.4336 39.8535C75.4336 43.0121 75.0529 45.8888 74.2773 48.4834C73.5017 51.0923 72.4152 53.3353 71.0332 55.2109C69.6513 57.0863 67.9875 58.5669 66.0557 59.6104C64.1237 60.6539 62.0083 61.1904 59.752 61.1904H59.7373C56.6349 61.1904 53.885 60.2732 51.4736 58.4541C49.0622 56.6349 47.2006 54.1107 45.875 50.8955C44.5494 47.6803 43.8868 43.9995 43.8867 39.8535C43.8867 36.6946 44.2674 33.8175 45.043 31.2227C45.8186 28.6278 46.9048 26.371 48.3291 24.4531C49.7533 22.5355 51.4031 21.0831 53.3066 20.0537C55.2104 19.0243 57.3542 18.5167 59.7373 18.5166ZM205.795 18.5166C208.897 18.5166 211.62 19.419 213.975 21.21C216.33 23.0151 218.163 25.5112 219.503 28.7266C220.829 31.9419 221.491 35.6511 221.491 39.8535C221.491 43.0121 221.11 45.8888 220.335 48.4834C219.559 51.0923 218.473 53.3353 217.091 55.2109C215.709 57.0863 214.045 58.5669 212.113 59.6104C210.181 60.6539 208.066 61.1904 205.81 61.1904H205.795C202.693 61.1904 199.943 60.2732 197.531 58.4541C195.12 56.6349 193.258 54.1107 191.933 50.8955C190.607 47.6803 189.944 43.9995 189.944 39.8535C189.944 36.6946 190.325 33.8175 191.101 31.2227C191.876 28.6278 192.962 26.371 194.387 24.4531C195.811 22.5355 197.461 21.0831 199.364 20.0537C201.268 19.0243 203.412 18.5166 205.795 18.5166ZM387.701 19.1787H395.838V23.0859H387.532V49.6543C387.532 50.9234 387.659 52.0656 387.898 53.0527C388.152 54.054 388.519 54.8299 389.013 55.3799C389.506 55.9297 390.141 56.2118 390.916 56.2119C391.974 56.2119 392.82 55.7604 393.497 54.8438C394.16 53.9271 394.583 52.8129 394.738 51.4873V51.4736H397.319C397.207 53.194 396.797 54.7874 396.078 56.2539C395.359 57.7205 394.343 58.9056 393.046 59.8223C391.749 60.7389 390.211 61.1904 388.435 61.1904C386.77 61.1904 385.29 60.7809 383.992 59.9912C382.695 59.1874 381.665 57.9747 380.918 56.3389C380.171 54.703 379.804 52.6721 379.804 50.2324V23.0859H374.656V20.8428C375.813 20.6171 376.969 20.1942 378.098 19.5596C379.226 18.925 380.269 18.1352 381.214 17.1904C382.159 16.2456 382.963 15.1879 383.626 13.9893C384.289 12.8048 384.782 11.5354 385.12 10.21H387.701V19.1787ZM414.115 18.5166C417.218 18.5167 419.939 19.4191 422.294 21.21C424.649 23.0151 426.483 25.5112 427.822 28.7266C429.148 31.9419 429.811 35.6511 429.811 39.8535C429.811 43.0122 429.43 45.8888 428.654 48.4834C427.879 51.0923 426.793 53.3353 425.411 55.2109C424.029 57.0865 422.365 58.5668 420.433 59.6104C418.501 60.6539 416.385 61.1904 414.129 61.1904H414.115C411.013 61.1904 408.262 60.2733 405.851 58.4541C403.439 56.6208 401.578 54.1107 400.252 50.8955C398.926 47.6803 398.264 43.9995 398.264 39.8535C398.264 36.6946 398.644 33.8175 399.42 31.2227C400.196 28.6278 401.282 26.371 402.706 24.4531C404.116 22.5494 405.781 21.0831 407.685 20.0537C409.588 19.0243 411.732 18.5166 414.115 18.5166ZM118.812 18.502C120.646 18.502 122.253 19.0244 123.663 20.082C125.073 21.1397 126.174 22.6767 126.949 24.6934C127.725 26.71 128.105 29.2203 128.105 32.21V52.7988C128.105 54.2936 128.359 55.4364 128.853 56.2402C129.346 57.0441 130.376 57.6078 131.928 57.9463V60.5273H116.57V57.9463C118.177 57.6079 119.221 57.03 119.729 56.1982C120.222 55.3662 120.477 54.2373 120.477 52.7988V32.7031C120.477 30.0522 120.025 28.0216 119.108 26.6396C118.192 25.2576 116.88 24.5664 115.159 24.5664C114.215 24.5665 113.256 24.9333 112.255 25.6523C111.254 26.3716 110.407 27.4571 109.716 28.8955C109.025 30.3339 108.673 32.1108 108.673 34.2119V52.7285C108.673 54.3925 108.955 55.6052 109.505 56.3809C110.055 57.1565 111.056 57.6789 112.494 57.9609V60.541H97.0527V57.9609C98.6037 57.6225 99.6469 57.0438 100.211 56.2119C100.761 55.3799 101.043 54.2234 101.043 52.7285V32.7178C101.043 30.0666 100.592 28.0353 99.6758 26.6533C98.7591 25.2713 97.447 24.5801 95.7266 24.5801C94.7817 24.5801 93.8225 24.9468 92.8213 25.666C91.8201 26.3852 90.9742 27.4718 90.2832 28.9102C89.5923 30.3485 89.2393 32.1255 89.2393 34.2266V52.7432C89.2393 54.3506 89.5361 55.535 90.1143 56.3105C90.6925 57.0861 91.7357 57.6362 93.2305 57.9746V60.5557H77.21V57.9746C79.0433 57.6362 80.2283 57.0576 80.7783 56.2256C81.3281 55.3937 81.6103 54.2376 81.6104 52.7432V27.7529C81.6103 26.5969 81.4266 25.7089 81.0742 25.1025C80.7076 24.4961 80.0587 24.1855 79.1279 24.1855H77.3799V21.6045L86.6729 18.8691H89.2539V26.9775C90.1988 24.3264 91.5665 22.2389 93.3574 20.7441C95.1483 19.2494 97.165 18.502 99.3789 18.502C100.817 18.502 102.143 18.8411 103.37 19.5039C104.583 20.1667 105.626 21.1677 106.486 22.4932C107.347 23.8187 107.939 25.511 108.277 27.5557C109.222 24.5096 110.647 22.239 112.551 20.7441C114.455 19.2494 116.556 18.502 118.812 18.502ZM176.096 18.502C177.929 18.502 179.537 19.0244 180.947 20.082C182.357 21.1397 183.458 22.6768 184.233 24.6934C185.009 26.7099 185.39 29.2204 185.39 32.21V52.7988C185.39 54.2937 185.643 55.4364 186.137 56.2402C186.63 57.044 187.66 57.6078 189.211 57.9463V60.5273H173.854V57.9463C175.461 57.6079 176.505 57.0301 177.013 56.1982C177.506 55.3662 177.76 54.2373 177.76 52.7988V32.7031C177.76 30.0523 177.309 28.0216 176.393 26.6396C175.476 25.2576 174.164 24.5664 172.443 24.5664C171.499 24.5664 170.539 24.9332 169.538 25.6523C168.537 26.3715 167.691 27.4573 167 28.8955C166.309 30.3339 165.956 32.1108 165.956 34.2119V52.7285C165.956 54.3923 166.238 55.6052 166.788 56.3809C167.338 57.1565 168.34 57.6789 169.778 57.9609V60.541H154.336V57.9609C155.887 57.6225 156.931 57.044 157.495 56.2119C158.045 55.3799 158.327 54.2233 158.327 52.7285V32.7178C158.327 30.0665 157.876 28.0353 156.959 26.6533C156.042 25.2715 154.731 24.5801 153.011 24.5801C152.066 24.5801 151.107 24.9469 150.105 25.666C149.104 26.3852 148.258 27.4717 147.567 28.9102C146.876 30.3486 146.523 32.1254 146.523 34.2266V52.7432C146.523 54.3505 146.819 55.535 147.397 56.3105C147.976 57.0862 149.02 57.6362 150.515 57.9746V60.5557H134.494V57.9746C136.327 57.6362 137.513 57.0576 138.062 56.2256C138.612 55.3937 138.894 54.2375 138.895 52.7432V27.7529C138.894 26.597 138.711 25.7088 138.358 25.1025C137.992 24.4962 137.343 24.1856 136.412 24.1855H134.663V21.6045L143.957 18.8691H146.537V26.9775C147.482 24.3263 148.851 22.239 150.642 20.7441C152.433 19.2495 154.449 18.502 156.663 18.502C158.101 18.502 159.427 18.8411 160.654 19.5039C161.867 20.1667 162.91 21.1677 163.771 22.4932C164.631 23.8187 165.223 25.511 165.562 27.5557C166.506 24.5097 167.931 22.2389 169.835 20.7441C171.739 19.2496 173.84 18.502 176.096 18.502ZM245.268 18.5166C247.143 18.5166 248.821 19.0381 250.288 20.0957C251.755 21.1533 252.883 22.6906 253.687 24.707C254.49 26.7236 254.886 29.234 254.886 32.2236V52.8135C254.886 54.4209 255.195 55.5915 255.802 56.3389C256.408 57.0863 257.579 57.6225 259.285 57.9609V60.541H243.096V57.9609C244.703 57.6225 245.79 57.0724 246.382 56.2969C246.96 55.5213 247.256 54.3646 247.256 52.8135V32.7178C247.256 30.0665 246.777 28.0353 245.804 26.6533C244.831 25.2713 243.434 24.5801 241.615 24.5801C240.614 24.5801 239.599 24.9469 238.541 25.666C237.483 26.3852 236.609 27.4717 235.89 28.9102C235.171 30.3485 234.804 32.1255 234.804 34.2266V52.8271C234.804 54.4346 235.128 55.6051 235.763 56.3525C236.397 57.1 237.498 57.6362 239.049 57.9746V60.5557H222.774V57.9746C224.551 57.6362 225.722 57.1 226.3 56.3525C226.878 55.6051 227.175 54.4347 227.175 52.8271V27.7529C227.175 26.597 226.991 25.7088 226.639 25.1025C226.272 24.4961 225.623 24.1855 224.692 24.1855H222.943V21.6045L232.237 18.8691H234.817V26.9775C235.762 24.2702 237.159 22.1834 239.006 20.7168C240.853 19.2502 242.955 18.5166 245.268 18.5166ZM314.453 17.1064H311.873C311.379 14.3988 310.787 12.2405 310.124 10.6328C309.461 9.02532 308.685 7.82624 307.797 7.02246C306.909 6.2189 305.865 5.65481 304.639 5.31641C303.426 4.97796 301.987 4.73856 300.323 4.56934L290.775 3.99121V28.1484L296.586 27.8945C298.024 27.7817 299.125 27.3863 299.9 26.6953C300.676 26.0043 301.282 24.9185 301.733 23.4521C302.171 21.9856 302.481 20.0677 302.65 17.6846H305.23V41.5176H302.65C302.481 39.3036 302.213 37.47 301.818 35.9893C301.424 34.5228 300.831 33.4084 300.027 32.6328C299.224 31.8572 298.081 31.4204 296.586 31.3076L290.775 30.9688V51.3047C290.775 52.8557 291.001 54.0825 291.438 54.999C291.876 55.9156 292.679 56.5931 293.85 57.0303C295.006 57.4674 296.671 57.7771 298.828 57.9463V60.5273H276.25V57.9463C278.577 57.7207 280.171 57.058 281.031 55.958C281.891 54.858 282.314 53.1935 282.314 50.9795V10.125C282.314 8.08038 281.905 6.50072 281.073 5.38672C280.241 4.28693 278.634 3.55383 276.265 3.22949V0.663086H313.297L314.453 17.1064ZM452.008 18.5166C453.503 18.5166 454.688 18.9534 455.576 19.8418C456.465 20.7302 456.901 21.8307 456.901 23.1562C456.901 24.1572 456.549 25.0173 455.858 25.7363C455.167 26.4555 454.349 26.8222 453.404 26.8223C452.911 26.8223 452.417 26.71 451.951 26.4844C451.486 26.2588 451.049 25.9345 450.668 25.4834C450.386 25.145 450.104 24.8484 449.794 24.5664C449.484 24.2844 449.089 24.1573 448.596 24.1572C447.651 24.1572 446.79 24.7496 446.015 25.9482C445.239 27.1328 444.647 28.6276 444.224 30.4326C443.815 32.2376 443.603 34.0993 443.603 36.0312V52.7148C443.603 54.4914 443.97 55.7182 444.717 56.4092C445.464 57.1002 446.635 57.6078 448.243 57.9463V60.5273H431.715V57.9463C433.322 57.6643 434.409 57.1289 435.001 56.3252C435.579 55.5214 435.875 54.3224 435.875 52.7148V27.7256C435.875 26.5694 435.706 25.6806 435.382 25.0742C435.043 24.4678 434.38 24.1572 433.393 24.1572H431.645V21.5762L441.106 18.8408H443.519V27.1475H443.547C444.435 24.327 445.634 22.1834 447.157 20.7168C448.68 19.2502 450.301 18.5167 452.008 18.5166ZM59.7373 21.4072C58.7364 21.4073 57.8624 21.6895 57.0869 22.2393C56.3113 22.7892 55.6201 23.6075 55.0137 24.6934C54.4073 25.7792 53.8993 27.0766 53.5186 28.5996C53.1237 30.1226 52.8272 31.8295 52.6016 33.7051C52.376 35.5805 52.2637 37.6397 52.2637 39.8535C52.2637 43.4493 52.5596 46.6503 53.1377 49.4424C53.7159 52.2345 54.5618 54.4068 55.6758 55.958C56.7757 57.5091 58.1439 58.285 59.7373 58.2852C60.6821 58.2852 61.5287 58.0031 62.3184 57.4531C63.094 56.9031 63.7566 56.0987 64.3066 55.041C64.8566 53.9975 65.3508 52.7006 65.7598 51.1777C66.1687 49.6547 66.4931 47.934 66.7188 46.0303C66.9444 44.1265 67.0566 42.0529 67.0566 39.8389C67.0566 36.0736 66.7608 32.83 66.1826 30.0801C65.6045 27.3445 64.7861 25.2154 63.7285 23.6924C62.6708 22.1693 61.345 21.4072 59.7373 21.4072ZM205.795 21.4072C204.794 21.4073 203.919 21.6893 203.144 22.2393C202.368 22.7892 201.678 23.6076 201.071 24.6934C200.465 25.7792 199.957 27.0766 199.576 28.5996C199.181 30.1227 198.885 31.8295 198.659 33.7051C198.434 35.5806 198.321 37.6397 198.321 39.8535C198.321 43.4493 198.617 46.6503 199.195 49.4424C199.773 52.2345 200.619 54.4068 201.733 55.958C202.833 57.5092 204.201 58.2851 205.795 58.2852C206.74 58.2852 207.586 58.0031 208.376 57.4531C209.152 56.9031 209.814 56.0987 210.364 55.041C210.914 53.9975 211.408 52.7006 211.817 51.1777C212.226 49.6547 212.551 47.934 212.776 46.0303C213.002 44.1265 213.114 42.0529 213.114 39.8389C213.114 36.0736 212.818 32.83 212.24 30.0801C211.662 27.3445 210.844 25.2154 209.786 23.6924C208.728 22.1693 207.403 21.4072 205.795 21.4072ZM414.115 21.4072C413.114 21.4072 412.239 21.6894 411.464 22.2393C410.688 22.7892 409.997 23.6075 409.391 24.6934C408.784 25.7792 408.276 27.0766 407.896 28.5996C407.501 30.1226 407.204 31.8295 406.979 33.7051C406.753 35.5805 406.641 37.6397 406.641 39.8535C406.641 43.4493 406.937 46.6503 407.515 49.4424C408.093 52.2346 408.94 54.4068 410.054 55.958C411.154 57.5092 412.522 58.2852 414.115 58.2852C415.06 58.2851 415.906 58.0029 416.695 57.4531C417.471 56.9031 418.134 56.0987 418.684 55.041C419.234 53.9975 419.728 52.7006 420.137 51.1777C420.546 49.6547 420.87 47.934 421.096 46.0303C421.321 44.1265 421.434 42.0529 421.434 39.8389C421.434 36.0736 421.138 32.83 420.56 30.0801C419.981 27.3444 419.163 25.2154 418.105 23.6924C417.048 22.1695 415.723 21.4074 414.115 21.4072ZM324.65 39.3877C323.099 40.2197 321.745 41.4048 320.589 42.9561C319.432 44.5073 318.84 46.552 318.84 49.1045C318.84 50.7121 319.051 52.0381 319.46 53.0957C319.869 54.1532 320.433 54.9431 321.124 55.4648C321.815 55.9866 322.577 56.2539 323.409 56.2539C324.565 56.2538 325.58 55.8592 326.44 55.0557C327.301 54.2519 327.992 53.1941 328.514 51.8545C329.035 50.529 329.304 49.034 329.304 47.3701L329.317 47.4033V37.0469L324.65 39.3877Z" fill="white"/>
</svg>
