<svg width="100" height="100" viewBox="0 0 100 100" fill="none" xmlns="http://www.w3.org/2000/svg">
<path d="M100 100H91.6699V99.9902H75V100H66.6699V83.3301H50V83.3398H41.6699V66.6602H16.6699V33.3301H41.6699V16.6699H50V16.6602H66.6699V0H100V100ZM75 91.6602H91.6699V8.33008H75V91.6602ZM91.6602 83.3301H83.3301V66.6602H91.6602V83.3301ZM50 75H66.6699V24.9902H50V75ZM8.33008 41.6602H16.6602V58.3301H8.33008V66.6602H16.6592V74.9902H8.33008V66.6699H0V33.3398H8.33008V41.6602ZM25 58.3301H41.6699V41.6602H25V58.3301ZM91.6602 58.3301H83.3301V41.6602H91.6602V58.3301ZM16.6592 25V33.3301H8.33008V25H16.6592ZM91.6602 33.3301H83.3301V16.6602H91.6602V33.3301Z" fill="currentColor"/>
</svg>
