<svg width="100" height="100" viewBox="0 0 100 100" fill="none" xmlns="http://www.w3.org/2000/svg">
<path d="M75 91.6699H58.3301V100H41.6592V91.6699H58.3291V83.3398H75V91.6699ZM41.6592 91.6699H24.9893V83.3398H41.6592V91.6699ZM24.999 83.3301H16.6699V75H24.999V83.3301ZM91.6592 75.0098H83.3291V83.3301H75V75H83.3291V58.3398H91.6592V75.0098ZM16.6592 75.0098H8.3291V58.3398H16.6592V75.0098ZM58.3398 33.3301H66.6592V41.6602H58.3398V58.3301H66.6592V66.6602H58.3398V74.9902H41.6699V66.6602H58.3301V58.3301H41.6699V41.6602H58.3301V33.3301H41.6699V25H58.3398V33.3301ZM41.6592 66.6602H33.3301V58.3301H41.6592V66.6602ZM75 58.3398H66.6699V41.6699H75V58.3398ZM100 58.3398H91.6699V41.6699H100V58.3398ZM8.33008 58.3301H0V41.6602H8.33008V58.3301ZM33.3301 58.3301H25V41.6602H33.3301V58.3301ZM16.6699 41.6699H8.33984V25H16.6699V41.6699ZM91.6699 41.6699H83.3398V25H91.6699V41.6699ZM41.6592 41.6602H33.3301V33.3301H41.6592V41.6602ZM24.999 16.6602V24.9902H16.6699V16.6602H24.999ZM83.3291 24.9902H75V16.6602H83.3291V24.9902ZM58.3398 8.33008H75V16.6602H58.3301V8.33008H41.6699V16.6602H25V8.33008H41.6699V0H58.3398V8.33008Z" fill="currentColor"/>
</svg>
