<svg width="100" height="100" viewBox="0 0 100 100" fill="none" xmlns="http://www.w3.org/2000/svg">
<path d="M16.6699 100H0V83.3301H16.6699V100ZM100 100H83.3301V83.3301H100V100ZM25 83.3301H16.6699V75H25V83.3301ZM83.3301 83.3301H75V75H83.3301V83.3301ZM33.3301 75H25V66.6699H33.3301V75ZM75 75H66.6699V66.6699H75V75ZM41.6602 66.6699H33.3301V58.3398H41.6602V66.6699ZM66.6602 66.6699H58.3301V58.3398H66.6602V66.6699ZM66.6602 33.3398V41.6699H58.3398V58.3301H41.6699V41.6602H58.3301V33.3398H66.6602ZM41.6602 41.6699H33.3301V33.3398H41.6602V41.6699ZM33.3301 33.3301H25V25H33.3301V33.3301ZM75 33.3301H66.6699V25H75V33.3301ZM25 25H16.6699V16.6699H25V25ZM83.3301 25H75V16.6699H83.3301V25ZM16.6699 16.6699H0V0H16.6699V16.6699ZM100 16.6699H83.3301V0H100V16.6699Z" fill="currentColor"/>
</svg>
