<svg width="100" height="100" viewBox="0 0 100 100" fill="none" xmlns="http://www.w3.org/2000/svg">
<path d="M50.0098 91.6699V91.6602H41.6797V8.33008H41.6699V0H58.3398V8.33008H50.0098V8.33984H58.3398V58.3398H66.6699V66.6699H58.3398V83.3398H66.6699V91.6699H58.3301V100H41.6699V91.6699H50.0098ZM41.6699 91.6602H33.3398V83.3301H41.6699V91.6602ZM33.3398 83.3301H25.0098V75H33.3398V83.3301ZM83.3301 75H75.0098V83.3301H66.6797V75H75V66.6699H83.3301V75ZM25 75H16.6699V66.6699H25V75ZM91.6699 66.6699H83.3398V58.3398H91.6699V66.6699ZM16.6699 66.6602H8.33984V58.3301H16.6699V66.6602ZM41.6699 66.6602H33.3398V58.3301H41.6699V66.6602ZM8.33984 58.3301H0.00976562V50H8.33984V58.3301ZM33.3398 58.3301H25.0098V50H33.3398V58.3301ZM83.3301 50H75.0098V58.3301H66.6797V50H75V41.6699H83.3301V50ZM100.01 58.3301H91.6797V50H100.01V58.3301ZM25 50H16.6699V41.6699H25V50ZM91.6699 41.6699H83.3398V33.3398H91.6699V41.6699ZM16.6699 41.6602H8.33984V33.3301H16.6699V41.6602ZM8.33008 33.3301H0V25H8.33008V33.3301ZM100.01 33.3301H91.6797V25H100.01V33.3301Z" fill="currentColor"/>
</svg>
