<svg width="100" height="100" viewBox="0 0 100 100" fill="none" xmlns="http://www.w3.org/2000/svg">
<path d="M8.33008 100H0V91.6699H8.33008V100ZM25 100H16.6699V91.6699H25V100ZM41.6699 100H33.3398V91.6699H41.6699V100ZM66.6699 100H58.3398V91.6699H66.6699V100ZM83.3301 100H75V91.6699H83.3301V100ZM100 100H91.6699V91.6699H100V100ZM16.6602 91.6699H8.33008V83.3398H16.6602V91.6699ZM33.3301 91.6699H25V83.3398H33.3301V91.6699ZM58.3301 91.6699H50V83.3398H58.3301V91.6699ZM91.6602 91.6699H83.3301V83.3398H91.6602V91.6699ZM41.6602 83.3301H49.9902V91.6602H41.6602V83.3398H33.3301V75.0098H41.6602V83.3301ZM66.6602 83.3301H74.9902V91.6602H66.6602V83.3398H58.3301V75.0098H66.6602V83.3301ZM8.33008 83.3301H0V75H8.33008V83.3301ZM25 83.3301H16.6699V75H25V83.3301ZM83.3301 83.3301H75V75H83.3301V83.3301ZM100 83.3301H91.6699V75H100V83.3301ZM16.6699 75H8.33984V66.6699H16.6699V75ZM33.3301 75H25V66.6699H33.3301V75ZM58.3301 75H41.6699V66.6699H58.3301V75ZM75 75H66.6699V66.6699H75V75ZM91.6699 75H83.3398V66.6699H91.6699V75ZM8.33008 66.6699H0V58.3398H8.33008V66.6699ZM41.6602 66.6699H33.3301V58.3398H41.6602V66.6699ZM66.6602 66.6699H58.3301V58.3398H66.6602V66.6699ZM83.3301 66.6699H75V58.3398H83.3301V66.6699ZM16.6602 58.3301H24.9902V66.6602H16.6602V58.3398H8.33008V50.0098H16.6602V58.3301ZM91.6602 58.3301H99.9902V66.6602H91.6602V58.3398H83.3301V50.0098H91.6602V58.3301ZM33.3301 58.3301H25V41.6699H33.3301V58.3301ZM58.3301 58.3301H41.6699V41.6699H58.3301V58.3301ZM75 58.3301H66.6699V41.6699H75V58.3301ZM16.6699 50H8.33984V41.6699H16.6699V50ZM91.6699 50H83.3398V41.6699H91.6699V50ZM8.33008 41.6699H0V33.3398H8.33008V41.6699ZM41.6602 41.6699H33.3301V33.3398H41.6602V41.6699ZM66.6602 41.6699H58.3301V33.3398H66.6602V41.6699ZM83.3301 41.6699H75V33.3398H83.3301V41.6699ZM16.6602 33.3301H24.9902V41.6602H16.6602V33.3398H8.33008V25.0098H16.6602V33.3301ZM91.6602 33.3301H99.9902V41.6602H91.6602V33.3398H83.3301V25.0098H91.6602V33.3301ZM33.3301 33.3301H25V25H33.3301V33.3301ZM58.3301 33.3301H41.6699V25H58.3301V33.3301ZM75 33.3301H66.6699V25H75V33.3301ZM8.33008 25H0V16.6699H8.33008V25ZM25 25H16.6699V16.6699H25V25ZM41.6699 25H33.3398V16.6699H41.6699V25ZM66.6699 25H58.3398V16.6699H66.6699V25ZM83.3301 25H75V16.6699H83.3301V25ZM100 25H91.6699V16.6699H100V25ZM16.6602 16.6699H8.33008V8.33984H16.6602V16.6699ZM33.3301 16.6699H25V8.33984H33.3301V16.6699ZM58.3301 16.6699H50V8.33984H58.3301V16.6699ZM91.6602 16.6699H83.3301V8.33984H91.6602V16.6699ZM41.6602 8.33008H49.9902V16.6602H41.6602V8.33984H33.3301V0.00976562H41.6602V8.33008ZM66.6602 8.33008H74.9902V16.6602H66.6602V8.33984H58.3301V0.00976562H66.6602V8.33008ZM8.33008 8.33008H0V0H8.33008V8.33008ZM25 8.33008H16.6699V0H25V8.33008ZM83.3301 8.33008H75V0H83.3301V8.33008ZM100 8.33008H91.6699V0H100V8.33008Z" fill="currentColor"/>
</svg>
